<mxfile host="app.diagrams.net" modified="2022-01-07T08:24:58.471Z" agent="5.0 (Macintosh; Intel Mac OS X 10_15_7) AppleWebKit/537.36 (KHTML, like Gecko) Chrome/96.0.4664.110 Safari/537.36" etag="N4kQRWQNRy6kTMh6A6g8" version="16.1.0" type="github">
  <diagram id="6Z3TIg_0e0feJtFlE7T3" name="Page-1">
    <mxGraphModel dx="844" dy="749" grid="1" gridSize="10" guides="1" tooltips="1" connect="1" arrows="1" fold="1" page="1" pageScale="1" pageWidth="827" pageHeight="1169" math="0" shadow="0">
      <root>
        <mxCell id="0" />
        <mxCell id="1" parent="0" />
        <mxCell id="Enh5otP51w65wlUfJCJV-43" value="&lt;font style=&quot;font-size: 18px&quot;&gt;MyEShop&lt;/font&gt;" style="rounded=0;whiteSpace=wrap;html=1;shadow=1;fillColor=#EBEBEB;strokeColor=#D9D9D9;" vertex="1" parent="1">
          <mxGeometry x="40" y="110" width="120" height="60" as="geometry" />
        </mxCell>
        <mxCell id="Enh5otP51w65wlUfJCJV-2" value="" style="rounded=0;whiteSpace=wrap;html=1;" vertex="1" parent="1">
          <mxGeometry x="70" y="200" width="730" height="460" as="geometry" />
        </mxCell>
        <mxCell id="Enh5otP51w65wlUfJCJV-9" value="&lt;span style=&quot;background-color: rgb(51 , 255 , 51)&quot;&gt;&lt;b&gt;&lt;u&gt;&lt;font style=&quot;font-size: 14px&quot;&gt;Products&lt;/font&gt;&lt;/u&gt;&lt;/b&gt;&lt;/span&gt;&lt;br&gt;&lt;br&gt;&lt;br&gt;&lt;br&gt;&lt;br&gt;&lt;br&gt;&lt;br&gt;&lt;br&gt;&lt;br&gt;&lt;br&gt;&lt;br&gt;&lt;br&gt;" style="rounded=0;whiteSpace=wrap;html=1;" vertex="1" parent="1">
          <mxGeometry x="90" y="310" width="690" height="310" as="geometry" />
        </mxCell>
        <mxCell id="Enh5otP51w65wlUfJCJV-18" value="&lt;font style=&quot;font-size: 14px&quot;&gt;&lt;font style=&quot;background-color: rgb(51 , 255 , 51)&quot;&gt;&lt;b&gt;Card&lt;br&gt;&lt;/b&gt;&lt;/font&gt;Products list&lt;br&gt;- Img&lt;br&gt;- Name&lt;br&gt;- Price&lt;br&gt;- Reviews&lt;/font&gt;" style="rounded=0;whiteSpace=wrap;html=1;" vertex="1" parent="1">
          <mxGeometry x="130" y="400" width="232.4" height="210" as="geometry" />
        </mxCell>
        <mxCell id="Enh5otP51w65wlUfJCJV-20" value="&lt;font style=&quot;font-size: 11px&quot;&gt;&lt;b&gt;&lt;i&gt;useState() y useEffect()&lt;/i&gt;&lt;/b&gt;&lt;/font&gt;" style="text;html=1;strokeColor=none;fillColor=none;align=center;verticalAlign=middle;whiteSpace=wrap;rounded=0;fontFamily=Helvetica;fontSize=10;" vertex="1" parent="1">
          <mxGeometry x="610" y="590" width="170" height="30" as="geometry" />
        </mxCell>
        <mxCell id="Enh5otP51w65wlUfJCJV-31" value="&lt;u&gt;&lt;b style=&quot;background-color: rgb(51 , 255 , 51)&quot;&gt;Footer&lt;/b&gt;&lt;/u&gt;" style="rounded=0;whiteSpace=wrap;html=1;" vertex="1" parent="1">
          <mxGeometry x="70" y="660" width="730" height="50" as="geometry" />
        </mxCell>
        <mxCell id="Enh5otP51w65wlUfJCJV-32" value="&lt;b&gt;&lt;u style=&quot;background-color: rgb(51 , 255 , 51)&quot;&gt;Header&lt;/u&gt;&lt;/b&gt;&amp;nbsp;" style="rounded=0;whiteSpace=wrap;html=1;" vertex="1" parent="1">
          <mxGeometry x="70" y="150" width="730" height="50" as="geometry" />
        </mxCell>
        <mxCell id="Enh5otP51w65wlUfJCJV-33" value="&lt;span style=&quot;background-color: rgb(51 , 255 , 51)&quot;&gt;&amp;lt;&lt;b&gt;&lt;u&gt;Nav&lt;/u&gt;&lt;/b&gt;&amp;gt;&lt;/span&gt;" style="rounded=0;whiteSpace=wrap;html=1;" vertex="1" parent="1">
          <mxGeometry x="683" y="160" width="77.5" height="30" as="geometry" />
        </mxCell>
        <mxCell id="Enh5otP51w65wlUfJCJV-34" value="&lt;b&gt;&lt;u&gt;&lt;font style=&quot;font-size: 14px ; background-color: rgb(51 , 255 , 51)&quot;&gt;Main&lt;/font&gt;&lt;/u&gt;&lt;/b&gt;" style="text;html=1;strokeColor=none;fillColor=none;align=center;verticalAlign=middle;whiteSpace=wrap;rounded=0;" vertex="1" parent="1">
          <mxGeometry x="100" y="220" width="60" height="30" as="geometry" />
        </mxCell>
        <mxCell id="Enh5otP51w65wlUfJCJV-39" value="&lt;b&gt;Filter&lt;/b&gt; (name/ratings/price)" style="text;html=1;strokeColor=none;fillColor=none;align=center;verticalAlign=middle;whiteSpace=wrap;rounded=0;" vertex="1" parent="1">
          <mxGeometry x="660" y="230" width="110.5" height="30" as="geometry" />
        </mxCell>
        <mxCell id="Enh5otP51w65wlUfJCJV-40" value="&lt;b&gt;Pagination&lt;/b&gt; (1/10)" style="text;html=1;strokeColor=none;fillColor=none;align=center;verticalAlign=middle;whiteSpace=wrap;rounded=0;" vertex="1" parent="1">
          <mxGeometry x="405" y="630" width="60" height="30" as="geometry" />
        </mxCell>
        <mxCell id="Enh5otP51w65wlUfJCJV-42" value="&lt;font style=&quot;font-size: 14px&quot;&gt;&lt;font style=&quot;background-color: rgb(51 , 255 , 51)&quot;&gt;&lt;b&gt;Detail&lt;br&gt;&lt;/b&gt;&lt;/font&gt;Product detail&lt;br&gt;- Img&lt;br&gt;- Name&lt;br&gt;- Price&lt;br&gt;- Reviews&lt;br&gt;&lt;span style=&quot;color: transparent&quot;&gt;nombre, un&lt;/span&gt;&lt;br&gt;&lt;/font&gt;&lt;div&gt;&lt;span dir=&quot;ltr&quot; style=&quot;box-sizing: inherit ; color: transparent ; position: absolute ; cursor: text ; transform-origin: 0px 0px ; left: 472.81px ; top: 393.929px&quot;&gt; &lt;/span&gt;&lt;span dir=&quot;ltr&quot; style=&quot;box-sizing: inherit ; color: transparent ; position: absolute ; cursor: text ; transform-origin: 0px 0px ; left: 477.384px ; top: 393.929px ; transform: scalex(0.997238)&quot;&gt;&lt;font style=&quot;font-size: 14px&quot;&gt;Cn&lt;/font&gt;&lt;/span&gt;&lt;/div&gt;&lt;div&gt;&lt;font style=&quot;font-size: 14px&quot;&gt;&amp;nbsp;Manufacturer&lt;/font&gt;&lt;/div&gt;&lt;div&gt;&lt;font style=&quot;font-size: 14px&quot;&gt;- Name&lt;/font&gt;&lt;/div&gt;&lt;div&gt;&lt;span style=&quot;font-size: 14px&quot;&gt;- Cif&lt;/span&gt;&lt;/div&gt;&lt;div&gt;&lt;font style=&quot;font-size: 14px&quot;&gt;- Address&lt;/font&gt;&lt;/div&gt;" style="rounded=0;whiteSpace=wrap;html=1;" vertex="1" parent="1">
          <mxGeometry x="370" y="400" width="232.4" height="210" as="geometry" />
        </mxCell>
        <mxCell id="Enh5otP51w65wlUfJCJV-44" value="&lt;b&gt;Order&lt;br&gt;&lt;/b&gt;&amp;nbsp;(- / +)" style="text;html=1;strokeColor=none;fillColor=none;align=center;verticalAlign=middle;whiteSpace=wrap;rounded=0;" vertex="1" parent="1">
          <mxGeometry x="660" y="270" width="110.5" height="30" as="geometry" />
        </mxCell>
        <mxCell id="Enh5otP51w65wlUfJCJV-46" value="Postgre" style="shape=cylinder3;whiteSpace=wrap;html=1;boundedLbl=1;backgroundOutline=1;size=15;" vertex="1" parent="1">
          <mxGeometry x="670" y="360" width="50" height="70" as="geometry" />
        </mxCell>
        <mxCell id="Enh5otP51w65wlUfJCJV-47" value="Postgre" style="shape=cylinder3;whiteSpace=wrap;html=1;boundedLbl=1;backgroundOutline=1;size=15;" vertex="1" parent="1">
          <mxGeometry x="700" y="395" width="50" height="70" as="geometry" />
        </mxCell>
        <mxCell id="Enh5otP51w65wlUfJCJV-49" value="Products" style="shape=cylinder3;whiteSpace=wrap;html=1;boundedLbl=1;backgroundOutline=1;size=15;" vertex="1" parent="1">
          <mxGeometry x="190" y="740" width="78.57" height="110" as="geometry" />
        </mxCell>
        <mxCell id="Enh5otP51w65wlUfJCJV-51" value="Manufacturer" style="shape=cylinder3;whiteSpace=wrap;html=1;boundedLbl=1;backgroundOutline=1;size=15;" vertex="1" parent="1">
          <mxGeometry x="190" y="860" width="78.57" height="110" as="geometry" />
        </mxCell>
        <mxCell id="Enh5otP51w65wlUfJCJV-52" value="&lt;ul&gt;&lt;li&gt;&lt;span style=&quot;color: rgb(0 , 0 , 0) ; font-family: &amp;#34;helvetica&amp;#34; ; font-size: 14px ; font-style: normal ; font-weight: 400 ; letter-spacing: normal ; text-align: center ; text-indent: 0px ; text-transform: none ; word-spacing: 0px ; background-color: rgb(248 , 249 , 250) ; display: inline ; float: none&quot;&gt;Img&lt;/span&gt;&lt;/li&gt;&lt;li&gt;&lt;span style=&quot;color: rgb(0 , 0 , 0) ; font-family: &amp;#34;helvetica&amp;#34; ; font-size: 14px ; font-style: normal ; font-weight: 400 ; letter-spacing: normal ; text-align: center ; text-indent: 0px ; text-transform: none ; word-spacing: 0px ; background-color: rgb(248 , 249 , 250) ; display: inline ; float: none&quot;&gt;Name&lt;/span&gt;&lt;/li&gt;&lt;li&gt;&lt;span style=&quot;color: rgb(0 , 0 , 0) ; font-family: &amp;#34;helvetica&amp;#34; ; font-size: 14px ; font-style: normal ; font-weight: 400 ; letter-spacing: normal ; text-align: center ; text-indent: 0px ; text-transform: none ; word-spacing: 0px ; background-color: rgb(248 , 249 , 250) ; display: inline ; float: none&quot;&gt;Price&lt;/span&gt;&lt;/li&gt;&lt;li&gt;Reviews&lt;/li&gt;&lt;li&gt;Manufacturer (fk)&lt;/li&gt;&lt;/ul&gt;" style="text;whiteSpace=wrap;html=1;fontSize=14;fontFamily=Helvetica;" vertex="1" parent="1">
          <mxGeometry x="272.4" y="740" width="177.6" height="100" as="geometry" />
        </mxCell>
        <mxCell id="Enh5otP51w65wlUfJCJV-54" value="&lt;ul&gt;&lt;li&gt;&lt;span style=&quot;color: rgb(0 , 0 , 0) ; font-family: &amp;#34;helvetica&amp;#34; ; font-size: 14px ; font-style: normal ; font-weight: 400 ; letter-spacing: normal ; text-align: center ; text-indent: 0px ; text-transform: none ; word-spacing: 0px ; background-color: rgb(248 , 249 , 250) ; display: inline ; float: none&quot;&gt;Name&lt;/span&gt;&lt;/li&gt;&lt;li&gt;&lt;span style=&quot;color: rgb(0 , 0 , 0) ; font-family: &amp;#34;helvetica&amp;#34; ; font-size: 14px ; font-style: normal ; font-weight: 400 ; letter-spacing: normal ; text-align: center ; text-indent: 0px ; text-transform: none ; word-spacing: 0px ; background-color: rgb(248 , 249 , 250) ; display: inline ; float: none&quot;&gt;Cif&lt;/span&gt;&lt;/li&gt;&lt;li&gt;&lt;span style=&quot;color: rgb(0 , 0 , 0) ; font-family: &amp;#34;helvetica&amp;#34; ; font-size: 14px ; font-style: normal ; font-weight: 400 ; letter-spacing: normal ; text-align: center ; text-indent: 0px ; text-transform: none ; word-spacing: 0px ; background-color: rgb(248 , 249 , 250) ; display: inline ; float: none&quot;&gt;Address&lt;/span&gt;&lt;/li&gt;&lt;/ul&gt;" style="text;whiteSpace=wrap;html=1;fontSize=14;fontFamily=Helvetica;" vertex="1" parent="1">
          <mxGeometry x="272.4" y="880" width="90" height="100" as="geometry" />
        </mxCell>
      </root>
    </mxGraphModel>
  </diagram>
</mxfile>
